<?xml version="1.0" encoding="UTF-8"?>
<svg version="1.1" xmlns="http://www.w3.org/2000/svg" width="1920" height="1080">
<path d="M0 0 C633.6 0 1267.2 0 1920 0 C1920 356.4 1920 712.8 1920 1080 C1286.4 1080 652.8 1080 0 1080 C0 723.6 0 367.2 0 0 Z " fill="#FFEBEB" transform="translate(0,0)"/>
<path d="M0 0 C472.23 0 944.46 0 1431 0 C1431 332.64 1431 665.28 1431 1008 C1417.50408709 1004.93274707 1404.27193908 1001.7919826 1391 998 C1389.66890503 997.65783766 1388.3369199 997.31864412 1387 997 C1387 996.34 1387 995.68 1387 995 C1385.824375 994.773125 1384.64875 994.54625 1383.4375 994.3125 C1369.20957075 991.08691355 1356.12057086 985.23233122 1343 979 C1341.6704126 978.36916504 1341.6704126 978.36916504 1340.31396484 977.72558594 C1326.07108544 970.9109831 1312.46203585 963.24004735 1299 955 C1298.0929834 954.44489746 1297.1859668 953.88979492 1296.25146484 953.31787109 C1290.94944053 950.06446355 1285.66528485 946.78329396 1280.38964844 943.48730469 C1278.17477447 942.10877872 1275.95264584 940.74313867 1273.7265625 939.3828125 C1256.08325283 928.56372115 1238.89088921 916.48627637 1223.125 903.0625 C1170.43714331 858.63382085 1104.63946375 844.7378187 1038 836 C1037.13656982 835.88676392 1036.27313965 835.77352783 1035.38354492 835.65686035 C983.67540119 828.9387277 931.54705563 825.29314209 879.5 822.375 C804.02770934 818.13724902 718.02403568 810.11557823 662 754 C661.44957031 753.484375 660.89914062 752.96875 660.33203125 752.4375 C643.81043579 736.80781587 632.75967632 715.22397255 621.61987305 695.70581055 C612.95101879 680.58068309 603.8629447 665.66354763 593 652 C592.360625 651.16984375 591.72125 650.3396875 591.0625 649.484375 C579.4008238 634.53109664 565.94962512 620.66194823 551 609 C550.01644531 608.21109375 549.03289063 607.4221875 548.01953125 606.609375 C527.15936708 590.02493742 503.42446167 577.13443448 479.625 565.3125 C446.66926239 548.93950562 413.83900283 531.62800915 383.79248047 510.27050781 C382.02752043 509.01950644 380.25167352 507.78559118 378.47265625 506.5546875 C364.83681521 497.05717232 351.97358902 486.52379491 340 475 C339.34354492 474.37077637 338.68708984 473.74155273 338.01074219 473.09326172 C328.52813455 463.9541016 319.72703205 454.67429294 312 444 C311.23558594 442.95714844 310.47117187 441.91429687 309.68359375 440.83984375 C293.95039877 418.75864662 282.89401549 394.53245201 274 369 C273.66258789 368.03175293 273.32517578 367.06350586 272.97753906 366.06591797 C260.51242632 329.78331909 252.64871472 291.83430252 244.9765625 254.3046875 C244.71484756 253.02709061 244.45313263 251.74949371 244.18348694 250.43318176 C242.88837965 244.10370727 241.6035379 237.77244359 240.33666992 231.43725586 C232.00580847 190.16024288 217.63781537 151.49380536 190 119 C189.1464535 117.96280038 188.29364018 116.92499713 187.44140625 115.88671875 C176.22086038 102.3601277 163.89019343 89.78394764 150 79 C148.87374152 78.07602903 147.75021428 77.14872248 146.62890625 76.21875 C103.72638288 40.8247458 52.09987491 18.92374015 0 1 C0 0.67 0 0.34 0 0 Z " fill="#FFffff" transform="translate(489,0)"/>
<path d="M0 0 C9.71252242 -0.28309779 19.42354239 -0.49371942 29.13934898 -0.62174606 C33.65529459 -0.68332077 38.16834129 -0.76618307 42.68261719 -0.90527344 C66.98455314 -1.63370803 86.93458035 0.75167118 109.35768127 10.42843628 C113.06336608 12.02734078 116.78871116 13.55310453 120.52978516 15.06713867 C126.74338763 17.58764195 132.88274962 20.25473891 139 23 C139.8554541 23.38220703 140.7109082 23.76441406 141.59228516 24.15820312 C169.34867201 36.66098076 196.10699776 52.10054749 220 71 C220.89203125 71.69222656 221.7840625 72.38445312 222.703125 73.09765625 C225.16512934 75.03152095 227.58731434 77.00496626 230 79 C230.49612793 79.40589355 230.99225586 79.81178711 231.50341797 80.22998047 C245.63532573 91.8366575 258.74144127 104.57286486 270 119 C270.69738281 119.80695313 271.39476562 120.61390625 272.11328125 121.4453125 C298.5932956 152.20540021 312.26303053 191.06287469 320.09695435 230.23916626 C321.14118576 235.45255271 322.21736269 240.65939128 323.2890625 245.8671875 C323.51012161 246.94440567 323.73118073 248.02162384 323.9589386 249.13148499 C336.39311501 309.74054669 336.39311501 309.74054669 354 369 C354.29616211 369.85964355 354.59232422 370.71928711 354.89746094 371.60498047 C362.85995532 394.4760694 372.77510945 417.28676585 387 437 C388.04414062 438.4540625 388.04414062 438.4540625 389.109375 439.9375 C402.99579644 458.84666962 419.23848636 476.81640153 438 491 C439.16429318 491.92515766 440.3269222 492.85241178 441.48828125 493.78125 C480.30227969 524.5152821 525.23469174 548.36173125 569.50073242 570.23046875 C583.36599397 577.08182703 596.60545953 584.56302513 609.5 593.125 C610.49064453 593.78177734 611.48128906 594.43855469 612.50195312 595.11523438 C618.93233708 599.44395955 625.02314692 604.06664131 631 609 C631.90032959 609.73283203 631.90032959 609.73283203 632.81884766 610.48046875 C647.22345239 622.27117741 660.68333802 635.26294174 671.73046875 650.28173828 C673.01893723 652.02563081 674.33468182 653.74593819 675.65625 655.46484375 C686.29017412 669.44272093 695.10147309 684.61747726 703.8359375 699.82617188 C733.73767062 751.72209886 770.85506385 786.40341682 829.6574707 802.85083008 C875.97191267 815.26034003 923.45420299 819.37396176 971.13363647 822.18490601 C1173.64956127 834.12800051 1173.64956127 834.12800051 1298 899 C1298.84175781 899.67289063 1299.68351562 900.34578125 1300.55078125 901.0390625 C1302.17914965 902.34279605 1303.80675856 903.64747878 1305.43359375 904.953125 C1321.90777634 918.0923513 1339.06205269 929.95079597 1357 941 C1357.88961426 941.54914062 1358.77922852 942.09828125 1359.69580078 942.6640625 C1366.43849135 946.81851788 1373.21131207 950.92121361 1380 955 C1381.45647949 955.87857666 1381.45647949 955.87857666 1382.94238281 956.77490234 C1409.13923017 972.52694225 1436.37985066 986.87009337 1466 995 C1466 995.66 1466 996.32 1466 997 C1466.9792041 997.12310547 1467.9584082 997.24621094 1468.96728516 997.37304688 C1473.22676392 997.98366165 1477.35403847 998.98044 1481.5234375 1000.03125 C1482.70360947 1000.32521667 1482.70360947 1000.32521667 1483.90762329 1000.62512207 C1485.55685075 1001.03692167 1487.20563974 1001.45048095 1488.85400391 1001.86572266 C1491.38705035 1002.50303184 1493.92191204 1003.13271157 1496.45703125 1003.76171875 C1498.06261349 1004.16360937 1499.66808633 1004.56593737 1501.2734375 1004.96875 C1502.03377289 1005.15731567 1502.79410828 1005.34588135 1503.57748413 1005.54016113 C1508.88501957 1006.88501957 1508.88501957 1006.88501957 1510 1008 C1510.09436529 1010.23929886 1510.11742327 1012.4816175 1510.11352539 1014.72290039 C1510.11367142 1015.4253035 1510.11381744 1016.1277066 1510.1139679 1016.85139465 C1510.11326872 1019.18351278 1510.10547617 1021.515552 1510.09765625 1023.84765625 C1510.09579208 1025.46048438 1510.09436818 1027.07331307 1510.09336853 1028.68614197 C1510.08954323 1032.93915357 1510.07971285 1037.19213124 1510.06866455 1041.44512939 C1510.05845069 1045.7817743 1510.05387096 1050.11842467 1510.04882812 1054.45507812 C1510.03809059 1062.97006769 1510.02101403 1071.48502963 1510 1080 C1490.71599104 1080.35491521 1471.43266931 1080.61706424 1452.14603996 1080.77718258 C1443.1849302 1080.85360079 1434.22590195 1080.95760747 1425.26611328 1081.1315918 C1385.35513788 1081.89096339 1349.46565483 1082.39065112 1312.23309708 1065.95882416 C1307.70230853 1064.01344097 1303.07529876 1062.31204514 1298.46178532 1060.57474899 C1263.87875635 1047.49247475 1233.41753083 1027.11418592 1204 1005 C1202.71730225 1004.03755371 1202.71730225 1004.03755371 1201.40869141 1003.05566406 C1188.07050473 993.02316117 1174.99770493 982.90006192 1162.7578125 971.54296875 C1160.59659452 969.55011761 1158.41653031 967.60292215 1156.1875 965.6875 C1153.64722805 963.49743015 1151.1921898 961.24027625 1148.7734375 958.91796875 C1076.88492261 890.09101326 966.02492311 879.2208065 871.7421875 865.98046875 C870.81174181 865.84970444 869.88129612 865.71894012 868.92265511 865.58421326 C859.58668383 864.27328184 850.24954139 862.97178538 840.90818214 861.69977474 C776.32925289 852.89588046 704.12590011 842.81142768 653 799 C651.75089844 797.95392578 651.75089844 797.95392578 650.4765625 796.88671875 C628.32816704 777.77761415 616.23752838 751.69243122 603.5234375 725.953125 C592.78887913 704.2361317 581.96720025 683.17309954 567 664 C565.87851563 662.55947266 565.87851563 662.55947266 564.734375 661.08984375 C539.33062546 629.33515683 506.85703026 608.01593874 472.42602539 587.15039062 C463.83907484 581.93278353 455.38799311 576.53056819 447 571 C446.37222656 570.58830566 445.74445313 570.17661133 445.09765625 569.75244141 C425.38365135 556.81640649 406.06764259 543.16853662 388 528 C387.01773437 527.20335937 386.03546875 526.40671875 385.0234375 525.5859375 C368.53175757 512.03767431 352.35647115 496.44830295 340 479 C339.24332031 477.96488281 338.48664063 476.92976563 337.70703125 475.86328125 C296.69744989 418.47810114 289.03465798 346.00329159 279.9921875 277.98828125 C279.64652316 275.40973324 279.30073877 272.83120132 278.95483398 270.25268555 C278.29275967 265.31464115 277.64868266 260.37473055 277.01586914 255.43286133 C269.85839861 200.89606589 248.20488422 154.71247583 210 115 C209.4519873 114.43007324 208.90397461 113.86014648 208.33935547 113.27294922 C200.94607919 105.63206112 193.37551784 98.56858794 185 92 C183.88206665 91.08322077 182.76629801 90.16379752 181.65234375 89.2421875 C130.70960003 47.32727178 64.25790004 16.15150001 0 1 C0 0.67 0 0.34 0 0 Z " fill="#FFF8F8" transform="translate(410,0)"/>
</svg>
